<svg width="22" height="17" viewBox="0 0 22 17" fill="none" xmlns="http://www.w3.org/2000/svg">
<path d="M20.9358 11.9451C20.4381 11.9451 20.0347 12.3485 20.0347 12.8462C20.0347 13.7571 19.2936 14.4983 18.3826 14.4983H7.85789C7.36024 14.4983 6.95684 14.9017 6.95684 15.3993C6.95684 15.897 7.36024 16.3004 7.85789 16.3004H18.3826C20.2873 16.3004 21.8369 14.7509 21.8369 12.8462C21.8369 12.3485 21.4335 11.9451 20.9358 11.9451Z"  stroke="#42526E" stroke-width="0.1"/>
<path d="M12.9865 9.87321L12.9445 9.84614C13.2684 9.34313 13.4393 8.77426 13.4393 8.20118C13.4393 6.62803 12.2923 5.35758 10.8935 5.35758C9.49482 5.35758 8.34782 6.62803 8.34782 8.20118C8.34782 8.83283 8.49988 9.38453 8.79786 9.84276C9.06917 10.2599 8.9509 10.8181 8.53367 11.0894C8.11648 11.3606 7.55836 11.2424 7.2871 10.8252C6.79475 10.068 6.5457 9.18469 6.5457 8.20118C6.5457 5.64271 8.49301 3.55547 10.8935 3.55547C13.2941 3.55547 15.2414 5.64271 15.2414 8.20122C15.2414 9.12172 14.9709 10.0279 14.4596 10.8219L14.4176 10.7948L14.4596 10.8219C14.2874 11.0894 13.9972 11.2352 13.7013 11.2352L12.9865 9.87321ZM12.9865 9.87321L12.9445 9.84614C12.675 10.2645 12.7958 10.8221 13.2142 11.0916L13.2142 11.0916M12.9865 9.87321L13.2142 11.0916M13.2142 11.0916C13.3651 11.1887 13.5341 11.2352 13.7013 11.2352L13.2142 11.0916Z"  stroke="#42526E" stroke-width="0.1"/>
<path d="M17.6594 9.10856C18.157 9.10856 18.5605 8.70514 18.5605 8.2075C18.5605 7.70986 18.157 7.30645 17.6594 7.30645C17.1618 7.30645 16.7583 7.70986 16.7583 8.2075C16.7583 8.70514 17.1618 9.10856 17.6594 9.10856Z"  stroke="#42526E" stroke-width="0.1"/>
<path d="M4.12742 9.10856C4.62506 9.10856 5.02848 8.70514 5.02848 8.2075C5.02848 7.70986 4.62506 7.30645 4.12742 7.30645C3.62978 7.30645 3.22637 7.70986 3.22637 8.2075C3.22637 8.70514 3.62978 9.10856 4.12742 9.10856Z"  stroke="#42526E" stroke-width="0.1"/>
<path d="M18.3828 0.2H3.40423C1.49952 0.2 -0.05 1.74952 -0.05 3.65423V12.8456C-0.05 14.7504 1.49952 16.2999 3.40423 16.2999H4.93613C5.43378 16.2999 5.83719 15.8965 5.83719 15.3988C5.83719 14.9012 5.43378 14.4978 4.93613 14.4978H3.40423C2.4933 14.4978 1.75211 13.7566 1.75211 12.8456V3.65423C1.75211 2.7433 2.4933 2.00211 3.40423 2.00211H18.3828C19.2938 2.00211 20.035 2.7433 20.035 3.65423V9.49815C20.035 9.99581 20.4384 10.3992 20.936 10.3992C21.4337 10.3992 21.8371 9.99581 21.8371 9.49815V3.65423C21.8371 1.74952 20.2875 0.2 18.3828 0.2Z"  stroke="#42526E" stroke-width="0.1"/>
</svg>
