<svg width="19" height="21" viewBox="0 0 19 21" fill="none" xmlns="http://www.w3.org/2000/svg">
<path d="M9.7729 12.7362L9.7729 12.7363C15.4974 12.855 17.5609 14.7983 17.7003 14.9398C17.7706 15.0091 17.8263 15.0918 17.8643 15.183C17.9024 15.2747 17.9218 15.373 17.9213 15.4722M9.7729 12.7362L17.7213 19.4469C17.7213 19.5195 17.707 19.5914 17.6792 19.6586C17.6514 19.7257 17.6107 19.7866 17.5593 19.838C17.5079 19.8894 17.447 19.9301 17.3799 19.9579C17.3128 19.9857 17.2408 20 17.1682 20H1.26308C1.11639 20 0.975702 19.9417 0.871973 19.838C0.768245 19.7343 0.709971 19.5936 0.709971 19.4469V15.4717M9.7729 12.7362H9.76875H8.66253V12.7362L8.65838 12.7363C2.93365 12.855 0.870178 14.7984 0.730992 14.9398C0.66069 15.0092 0.604926 15.0919 0.566971 15.183C0.528837 15.2747 0.509457 15.373 0.509971 15.4722M9.7729 12.7362L0.709971 15.4717M17.9213 15.4722C17.9213 15.4724 17.9213 15.4727 17.9213 15.4729L17.7213 15.4717H17.9213V15.4722ZM17.9213 15.4722V19.4469C17.9213 19.5458 17.9018 19.6437 17.864 19.7351C17.8261 19.8265 17.7707 19.9095 17.7007 19.9794C17.6308 20.0494 17.5478 20.1048 17.4564 20.1427C17.365 20.1805 17.2671 20.2 17.1682 20.2H1.26308C1.06335 20.2 0.871788 20.1207 0.730551 19.9794C0.589316 19.8382 0.509971 19.6466 0.509971 19.4469V15.4722M0.509971 15.4722C0.509972 15.4724 0.509973 15.4727 0.509975 15.4729L0.709971 15.4717M0.509971 15.4722V15.4717H0.709971M9.21539 11.2531H9.21564C10.2494 11.2531 11.2599 10.9466 12.1194 10.3723C12.9789 9.79798 13.6488 8.9817 14.0443 8.02667C14.4399 7.07165 14.5434 6.02076 14.3418 5.00691C14.1401 3.99306 13.6423 3.06177 12.9114 2.33082C12.1804 1.59988 11.2491 1.1021 10.2353 0.900429C9.22143 0.698761 8.17055 0.802265 7.21552 1.19785C6.26049 1.59344 5.44422 2.26334 4.86992 3.12284C4.29561 3.98234 3.98908 4.99284 3.98908 6.02656L3.98908 6.02681C3.99082 7.41238 4.54201 8.74069 5.52176 9.72044C6.5015 10.7002 7.82982 11.2514 9.21539 11.2531ZM2.01408 15.8312C2.60953 15.4126 4.47799 14.3677 8.46253 14.2457V17.017V17.217H8.66253H9.76875H9.96875V17.017V14.2478C13.9112 14.3683 15.8117 15.4176 16.4172 15.8346V18.6959H2.01408V15.8312ZM9.21574 2.30411C9.95193 2.30413 10.6716 2.52245 11.2837 2.93146C11.8959 3.34049 12.373 3.92185 12.6547 4.60204C12.9365 5.28223 13.0102 6.03069 12.8666 6.75277C12.7229 7.47485 12.3684 8.13813 11.8478 8.65872C11.3272 9.17932 10.6639 9.53384 9.94185 9.67748C9.21977 9.82111 8.47131 9.74739 7.79112 9.46565C7.11093 9.1839 6.52957 8.70679 6.12054 8.09464C5.71157 7.48257 5.49326 6.763 5.49319 6.02688C5.49478 5.04003 5.88751 4.09405 6.58532 3.39624C7.28308 2.69848 8.22897 2.30576 9.21574 2.30411Z" stroke="#42526E" stroke-width="0.4"/>
</svg>
