<svg width="23" height="17" viewBox="0 0 23 17" fill="none" xmlns="http://www.w3.org/2000/svg">
<path d="M5.66052 0.732441C7.45096 0.738484 9.23105 1.10797 10.9231 1.63629C13.7382 2.50821 16.8236 2.47454 19.6154 1.54824C19.6154 1.54824 20.0091 1.45328 20.2948 1.60608C20.5694 1.75197 20.7377 2.0524 20.7524 2.36836C20.7524 3.42501 20.7524 4.48253 20.7524 5.53918V8.71001C20.7524 8.71001 20.7368 9.10625 20.4701 9.34883C20.1377 9.65184 19.5585 9.63199 19.2485 9.29186C19.1406 9.17359 19.0673 9.02597 19.0379 8.86885C19.025 8.79893 19.0267 8.7808 19.0232 8.71001V5.53918V3.5217C16.1373 4.2503 13.089 4.14412 10.2946 3.25149C7.51312 2.36318 4.52445 2.21038 1.72915 3.00632V13.8975C1.7749 13.8862 1.82066 13.875 1.86555 13.8638C4.79897 13.155 7.89383 13.3294 10.7737 14.2713C12.0514 14.6839 13.3679 14.9558 14.6965 15.005C14.6965 15.005 15.1488 15.0637 15.3577 15.3098C15.7816 15.807 15.4527 16.7644 14.5989 16.7316C12.9785 16.6703 11.3521 16.2585 9.8293 15.7829C7.02278 14.9144 3.92965 14.9446 1.13694 15.8709C1.13694 15.8709 0.857237 15.9564 0.600843 15.8744C0.255531 15.7639 0.0164023 15.4211 0 15.0508V2.36836C0.0189921 1.94535 0.31855 1.63543 0.74501 1.49817C2.32308 0.989698 4.0013 0.729851 5.66052 0.732441ZM19.0232 13.0333V12.1683C19.0258 12.0276 19.0388 11.981 19.0664 11.8981C19.1812 11.5502 19.5351 11.3042 19.9046 11.3042C20.3345 11.3206 20.7153 11.6711 20.7498 12.0992C20.7524 12.1303 20.7515 12.1381 20.7524 12.1683V13.0333H21.6174C21.6286 13.0333 21.6398 13.0333 21.6519 13.0333C22.3892 13.0782 22.813 14.2531 22.0145 14.6658C21.923 14.7133 21.8228 14.7443 21.7201 14.7564C21.6856 14.7607 21.6519 14.7616 21.6174 14.7625H20.7524V15.6275C20.7394 16.2948 19.8356 16.7454 19.3072 16.268C19.1294 16.1066 19.0275 15.8657 19.0232 15.6275V14.7625H18.1582C17.4909 14.7495 17.0394 13.8448 17.5177 13.3173C17.6791 13.1386 17.92 13.0376 18.1582 13.0333H19.0232ZM13.5647 11.8256C13.6968 11.8308 13.7201 11.8394 13.7935 11.8463C14.2786 11.8929 14.7647 11.9162 15.2516 11.9136C15.2516 11.9136 15.798 11.9758 16.0112 12.3556C16.2987 12.8693 15.9094 13.6298 15.2619 13.6428C14.6766 13.6462 14.093 13.6152 13.512 13.5565C13.512 13.5565 13.1141 13.5142 12.8905 13.2534C12.4787 12.7735 12.7973 11.8618 13.5164 11.8264C13.5405 11.8256 13.5405 11.8256 13.5647 11.8256ZM10.3973 5.48048C11.8839 5.49515 13.2781 6.64418 13.5509 8.11952C13.8159 9.54998 12.9803 11.1142 11.6336 11.684C10.4837 12.1709 9.05666 11.9119 8.14849 11.0469C7.16522 10.1085 6.87343 8.52009 7.47514 7.29164C7.99569 6.22722 9.13177 5.50033 10.3352 5.48048C10.3559 5.48048 10.3766 5.48048 10.3973 5.48048ZM10.3663 7.20963C9.37694 7.21912 8.56287 8.38714 9.02041 9.35056C9.41924 10.1923 10.6943 10.4694 11.4039 9.80119C12.2335 9.01992 11.7855 7.23207 10.3956 7.21049C10.3861 7.20963 10.3766 7.20963 10.3663 7.20963ZM5.67261 3.89981C6.19921 3.90154 6.72495 3.93176 7.24809 3.987C7.24809 3.987 7.66333 4.03535 7.88519 4.31764C8.28403 4.82439 7.90332 5.76881 7.1445 5.71443C6.1595 5.6445 5.13997 5.60565 4.12561 5.71184C4.12561 5.71184 3.64131 5.70925 3.39096 5.42868C2.98522 4.97546 3.22262 4.09578 3.91238 3.9965C4.48474 3.91449 5.08126 3.89895 5.67261 3.89981Z" />
</svg>
