<svg width="20" height="14" viewBox="0 0 20 14" fill="none" xmlns="http://www.w3.org/2000/svg">
<path d="M19 2C19 0.89543 18.1046 0 17 0C15.8954 0 15 0.89543 15 2V9C15 10.1046 15.8954 11 17 11C18.1046 11 19 10.1046 19 9V2Z" />
<path d="M13 5C13 3.89543 12.1046 3 11 3C9.89543 3 9 3.89543 9 5V9C9 10.1046 9.89543 11 11 11C12.1046 11 13 10.1046 13 9V5Z" />
<path d="M7 8C7 6.89543 6.10457 6 5 6C3.89543 6 3 6.89543 3 8V9C3 10.1046 3.89543 11 5 11C6.10457 11 7 10.1046 7 9V8Z" />
<path d="M19 12H2.995C2.448 12 2 11.548 2 10.991V1C2 0.734784 1.89465 0.48043 1.70711 0.292893C1.51957 0.105357 1.26522 0 1 0C0.734788 0 0.480434 0.105357 0.292897 0.292893C0.105361 0.48043 4.18954e-06 0.734784 4.18954e-06 1V10.991C-0.00132431 11.787 0.313347 12.551 0.874904 13.1152C1.43646 13.6794 2.19899 13.9976 2.995 14H19C19.2652 14 19.5196 13.8946 19.7071 13.7071C19.8946 13.5196 20 13.2652 20 13C20 12.7348 19.8946 12.4804 19.7071 12.2929C19.5196 12.1054 19.2652 12 19 12Z" />
</svg>
