<svg width="22" height="15" viewBox="0 0 22 15" fill="none" xmlns="http://www.w3.org/2000/svg">
<path d="M2.56087 10.1484C2.67857 10.171 2.70363 10.1843 2.73943 10.1971C4.77957 11.0132 6.81315 11.846 8.85999 12.6452C9.64323 12.9462 10.6088 12.6639 11.097 11.936L13.1371 8.87573C13.2594 8.70707 13.3135 8.67516 13.4155 8.61795C13.8537 8.3719 14.505 8.64217 14.61 9.1671C14.6517 9.37582 14.6014 9.59391 14.4893 9.77719C13.8055 10.803 13.1244 11.8306 12.4377 12.8545C11.5496 14.1632 9.76016 14.7509 8.2381 14.1469L2.28116 11.7641H0.812566C0.812566 11.7641 0.673926 11.7609 0.561491 11.7243C0.177185 11.5995 -0.0730525 11.1598 0.0224718 10.7618C0.0970478 10.4513 0.369452 10.1991 0.685429 10.149C0.74157 10.1401 0.755967 10.1412 0.812566 10.139H2.43762C2.43762 10.139 2.4946 10.1408 2.56087 10.1484ZM20.3528 10.1399C20.9781 10.1853 21.3699 11.0558 20.8811 11.533C20.7315 11.6791 20.5246 11.759 20.3135 11.7641H18.8803L15.8017 13.3034C15.8017 13.3034 15.4161 13.4516 15.1171 13.323C14.5767 13.0905 14.4549 12.1972 15.0402 11.8683C15.0516 11.8618 15.0634 11.856 15.0749 11.8499L18.3251 10.2248C18.4299 10.1754 18.4502 10.1729 18.5018 10.1607C18.5533 10.1485 18.5727 10.1417 18.6885 10.139H20.3135C20.3266 10.1393 20.3397 10.1396 20.3528 10.1399ZM13.1896 0.388613C14.2186 0.395316 15.2445 0.540126 16.2385 0.82091L20.536 2.04467C20.8734 2.15566 21.1116 2.4676 21.1261 2.82616V7.7014C21.11 8.08853 20.8281 8.43924 20.4473 8.50285C20.0289 8.57262 19.5833 8.26206 19.5121 7.83509C19.5023 7.77613 19.5035 7.76097 19.501 7.7014V3.4396C18.2519 3.08394 17.0036 2.72561 15.7538 2.37261C14.9214 2.14142 14.053 2.01938 13.1826 2.01367C12.5493 2.0123 11.8988 1.94762 11.3137 2.08733C10.8694 2.19337 10.4536 2.41641 10.1178 2.72233C9.09835 3.66234 8.08437 4.60829 7.06773 5.55134C6.81551 5.7852 6.81559 6.24172 7.08815 6.47345C7.2926 6.64485 7.54436 6.76437 7.79353 6.68461L11.9312 5.30545L11.9957 5.28686C12.0542 5.27513 12.0687 5.27033 12.1283 5.26599C12.6816 5.22508 13.1672 5.87981 12.9293 6.40931C12.8559 6.57278 12.7268 6.71043 12.5685 6.7943C12.5157 6.82234 12.5008 6.82599 12.445 6.84717C11.0618 7.30826 9.68025 7.77484 8.29515 8.23037C7.59022 8.456 6.78977 8.31172 6.2074 7.85139C5.78966 7.51576 5.45045 7.07844 5.31744 6.56951C5.11535 5.79564 5.36422 4.92609 5.95046 4.37115C6.97038 3.41873 7.99388 2.47027 9.01973 1.52432C9.80221 0.811312 10.8437 0.398058 11.9144 0.388613C12.3395 0.387318 12.7645 0.387698 13.1896 0.388613ZM6.54273 0.390898C7.07984 0.447344 7.44869 1.08844 7.20515 1.56857C7.11565 1.745 6.95979 1.88623 6.7759 1.95798C6.73812 1.97269 6.72814 1.97482 6.68929 1.98632L1.62513 3.33303V7.7014C1.62513 7.7014 1.61089 7.93663 1.52374 8.09439C1.26383 8.56463 0.486001 8.6453 0.149914 8.17156C0.0530945 8.03513 0.00472289 7.86823 0 7.7014V2.70839C0.00396114 2.56396 0.0170633 2.52389 0.0432677 2.4468C0.119291 2.2233 0.296857 2.03667 0.519366 1.95052C0.556159 1.93627 0.565909 1.93429 0.603769 1.9231L6.2717 0.415807C6.43326 0.377643 6.3577 0.381909 6.54273 0.390898Z" />
</svg>
