<svg width="15" height="18" viewBox="0 0 15 18" fill="none" xmlns="http://www.w3.org/2000/svg">
<path fill-rule="evenodd" clip-rule="evenodd" d="M14.6133 6.37943L8.94728 0.713359C7.99613 -0.237786 6.45402 -0.237786 5.50288 0.713359L0 6.21624V18H5.68297V13.1289C5.68297 12.2321 6.40993 11.5052 7.30667 11.5052C8.20342 11.5052 8.93038 12.2321 8.93038 13.1289V18H14.6133V6.37943ZM6.65101 1.86149L1.62371 6.8888V16.3763H4.05926V13.1289C4.05926 11.3354 5.51318 9.88147 7.30667 9.88147C9.10017 9.88147 10.5541 11.3354 10.5541 13.1289V16.3763H12.9896V7.05199L7.79915 1.86149C7.4821 1.54444 6.96806 1.54444 6.65101 1.86149Z"/>
</svg>
