<svg width="35" height="35" viewBox="0 0 35 35" fill="none" xmlns="http://www.w3.org/2000/svg">
<circle cx="17.5" cy="17.5" r="17.5" fill="#272393"/>
<path d="M19.8655 20.8752C19.6786 20.8908 19.5073 20.7974 19.336 20.7039C17.7631 19.7851 16.4239 18.477 15.4895 16.9197C15.3182 16.655 15.1625 16.3435 15.2248 16.0321C15.3338 15.4403 16.0813 15.2067 16.2993 14.6461C16.5017 14.1633 16.237 13.6183 15.9255 13.1978C15.4116 12.497 14.7576 11.8897 14.0101 11.4381C13.6519 11.2201 13.2626 11.0332 12.8421 11.002C10.9578 10.9086 10.8488 14.0543 11.0979 15.2846C11.3627 16.5616 12.0012 17.7451 12.7487 18.8196C14.5084 21.3736 16.9222 23.5382 19.8499 24.566C20.8777 24.9242 21.9834 25.1422 23.0423 24.8931C23.5718 24.7685 24.0702 24.5349 24.4439 24.13C24.8177 23.7407 25.0201 23.18 24.9267 22.6506C24.8332 22.1055 24.4595 21.6695 24.0857 21.2801C23.5407 20.7195 22.9333 20.2212 22.2793 19.7851C22.1547 19.7073 22.0301 19.6294 21.8899 19.6138C21.7342 19.5983 21.5941 19.6761 21.4539 19.754C21.0646 19.972 20.7064 20.2368 20.395 20.5326C20.2548 20.6728 20.0991 20.813 19.9122 20.8441C19.8966 20.8597 19.881 20.8752 19.8655 20.8752Z" fill="white"/>
</svg>
