<svg width="35" height="35" viewBox="0 0 35 35" fill="none" xmlns="http://www.w3.org/2000/svg">
<circle cx="17.5" cy="17.5" r="17.5" fill="#272393"/>
<path fill-rule="evenodd" clip-rule="evenodd" d="M26.3031 23.9999H9.59697C9.26734 23.9999 9.00012 23.7325 9.00012 23.4031V11.5968C9.00012 11.2674 9.26734 11 9.59697 11H26.3031C26.6327 11 26.9 11.2674 26.9 11.5968V23.4031C26.9 23.7325 26.6327 23.9999 26.3031 23.9999ZM10.1938 22.8062H25.7063V12.1939H10.1938V22.8062Z" fill="white"/>
<path fill-rule="evenodd" clip-rule="evenodd" d="M17.95 20.0448C17.8032 20.0448 17.6562 19.991 17.5413 19.883L9.18822 12.0318C8.94795 11.806 8.93635 11.4283 9.16213 11.188C9.38808 10.9479 9.76545 10.9362 10.0057 11.1619L17.95 18.629L25.8944 11.1619C26.1345 10.9362 26.5122 10.9479 26.7381 11.188C26.9637 11.4283 26.9521 11.806 26.7119 12.0318L18.3588 19.883C18.244 19.991 18.097 20.0448 17.95 20.0448Z" fill="white"/>
<path fill-rule="evenodd" clip-rule="evenodd" d="M9.59704 24.0001C9.4388 24.0001 9.28089 23.9376 9.16357 23.8135C8.93677 23.5743 8.94717 23.1965 9.18642 22.9699L13.4371 18.9448C13.6764 18.718 14.0543 18.7284 14.2809 18.9678C14.5075 19.2071 14.4971 19.5848 14.2579 19.8114L10.0073 23.8365C9.89188 23.9458 9.74421 24.0001 9.59704 24.0001Z" fill="white"/>
<path fill-rule="evenodd" clip-rule="evenodd" d="M26.3025 24.0007C26.1552 24.0007 26.0075 23.9464 25.8922 23.8371L21.568 19.7423C21.3288 19.5156 21.3184 19.1379 21.545 18.8987C21.7718 18.6591 22.1494 18.6485 22.3889 18.8757L26.713 22.9705C26.9522 23.1971 26.9626 23.5749 26.736 23.8141C26.6185 23.9382 26.4608 24.0007 26.3025 24.0007Z" fill="white"/>
</svg>
