<svg width="34" height="34" viewBox="0 0 34 34" fill="none" xmlns="http://www.w3.org/2000/svg">
<ellipse cx="16.5198" cy="17" rx="16.5198" ry="17" fill="white"/>
<rect x="18.172" y="15.8652" width="2.26667" height="7.15857" rx="1.13333" transform="rotate(90 18.172 15.8652)" fill="#03021A"/>
<rect x="15.7856" y="16.4316" width="2.20264" height="6.8" rx="1.10132" fill="#03021A"/>
<path d="M21.4439 15.8652C22.0699 15.8652 22.5773 16.3726 22.5773 16.9986C22.5773 17.6245 22.0699 18.1319 21.4439 18.1319L15.8006 18.1319C15.8006 16.8801 16.8154 15.8652 18.0672 15.8652L21.4439 15.8652Z" fill="#03021A"/>
<path d="M15.7856 12.4333C15.7856 11.8251 16.2787 11.332 16.887 11.332C17.4952 11.332 17.9883 11.8251 17.9883 12.4333V15.9294C17.9883 17.1459 17.0021 18.132 15.7856 18.132V12.4333Z" fill="#03021A"/>
</svg>
