<svg width="21" height="18" viewBox="0 0 21 18" fill="none" xmlns="http://www.w3.org/2000/svg">
<path d="M1.09474 6.41676H16.9465L15.2186 8.14463C15.0193 8.34389 14.9074 8.61415 14.9074 8.89596C14.9074 9.17776 15.0193 9.44802 15.2186 9.64728C15.4178 9.84655 15.6881 9.9585 15.9699 9.9585C16.2517 9.9585 16.522 9.84655 16.7212 9.64728L20.2629 6.10558C20.3616 6.00691 20.4399 5.88978 20.4933 5.76087C20.5467 5.63195 20.5742 5.49378 20.5742 5.35425C20.5742 5.21471 20.5467 5.07654 20.4933 4.94763C20.4399 4.81872 20.3616 4.70158 20.2629 4.60292L16.7212 1.06121C16.522 0.861946 16.2517 0.75 15.9699 0.75C15.6881 0.75 15.4178 0.861946 15.2186 1.06121C15.0193 1.26048 14.9074 1.53074 14.9074 1.81254C14.9074 2.09434 15.0193 2.3646 15.2186 2.56387L16.9465 4.29174H1.09474C0.812943 4.29174 0.542689 4.40368 0.343429 4.60294C0.14417 4.8022 0.0322266 5.07245 0.0322266 5.35425C0.0322266 5.63604 0.14417 5.9063 0.343429 6.10556C0.542689 6.30482 0.812943 6.41676 1.09474 6.41676Z"/>
<path d="M19.5107 12.0837H3.65893L5.38684 10.3559C5.5861 10.1566 5.69805 9.88634 5.69805 9.60453C5.69805 9.32273 5.5861 9.05247 5.38684 8.8532C5.18757 8.65394 4.91731 8.54199 4.63551 8.54199C4.3537 8.54199 4.08344 8.65394 3.88418 8.8532L0.342472 12.3949C0.243803 12.4936 0.165534 12.6107 0.112134 12.7396C0.0587345 12.8685 0.03125 13.0067 0.03125 13.1462C0.03125 13.2858 0.0587345 13.424 0.112134 13.5529C0.165534 13.6818 0.243803 13.7989 0.342472 13.8976L3.88418 17.4393C4.08344 17.6386 4.3537 17.7505 4.63551 17.7505C4.91731 17.7505 5.18757 17.6386 5.38684 17.4393C5.5861 17.24 5.69805 16.9698 5.69805 16.688C5.69805 16.4062 5.5861 16.1359 5.38684 15.9366L3.65893 14.2088H19.5107C19.7925 14.2088 20.0627 14.0968 20.262 13.8976C20.4612 13.6983 20.5732 13.428 20.5732 13.1462C20.5732 12.8644 20.4612 12.5942 20.262 12.3949C20.0627 12.1957 19.7925 12.0837 19.5107 12.0837Z"/>
</svg>
